<?xml version="1.0" standalone="no"?><!DOCTYPE svg PUBLIC "-//W3C//DTD SVG 1.1//EN" "http://www.w3.org/Graphics/SVG/1.1/DTD/svg11.dtd"><svg t="1510714958571" class="icon" style="" viewBox="0 0 1024 1024" version="1.1" xmlns="http://www.w3.org/2000/svg" p-id="6208" xmlns:xlink="http://www.w3.org/1999/xlink" width="200" height="200"><defs><style type="text/css"></style></defs><path d="M162.377143 500.297143c0-24.868571-20.48-45.348571-45.348572-45.348572-24.868571 0-45.348571 20.48-45.348571 45.348572 0 24.868571 20.48 45.348571 45.348571 45.348571 26.331429 0 45.348571-20.48 45.348572-45.348571zM266.24 277.942857c21.942857-21.942857 21.942857-57.051429 0-78.994286-21.942857-21.942857-57.051429-21.942857-78.994286 0-21.942857 21.942857-21.942857 57.051429 0 78.994286 21.942857 21.942857 57.051429 21.942857 78.994286 0z m223.817143-81.92c36.571429 0 67.291429-30.72 67.291428-67.291428 0-36.571429-30.72-67.291429-67.291428-67.291429-36.571429 0-67.291429 30.72-67.291429 67.291429 0 38.034286 29.257143 67.291429 67.291429 67.291428z m317.44 98.011429c30.72-30.72 30.72-80.457143 0-111.177143-30.72-30.72-80.457143-30.72-111.177143 0-30.72 30.72-30.72 80.457143 0 111.177143 30.72 30.72 80.457143 30.72 111.177143 0z m-643.657143 406.674285c-35.108571 35.108571-35.108571 92.16 0 127.268572 35.108571 35.108571 92.16 35.108571 127.268571 0 35.108571-35.108571 35.108571-92.16 0-127.268572-35.108571-35.108571-92.16-35.108571-127.268571 0z m326.217143 81.92c-49.737143 0-89.234286 39.497143-89.234286 89.234286 0 49.737143 39.497143 89.234286 89.234286 89.234286 49.737143 0 89.234286-39.497143 89.234286-89.234286 0-49.737143-39.497143-89.234286-89.234286-89.234286z m198.948571-81.92c-35.108571 35.108571-35.108571 92.16 0 127.268572 35.108571 35.108571 92.16 35.108571 127.268572 0 35.108571-35.108571 35.108571-92.16 0-127.268572-35.108571-35.108571-92.16-35.108571-127.268572 0z m172.617143-289.645714c-49.737143 0-89.234286 39.497143-89.234286 89.234286 0 49.737143 39.497143 89.234286 89.234286 89.234286 49.737143 0 89.234286-39.497143 89.234286-89.234286 0-49.737143-39.497143-89.234286-89.234286-89.234286z" fill="#45ABFF" p-id="6209"></path></svg>